<?xml version="1.0" encoding="utf-8"?>
<!-- Generator: Adobe Illustrator 16.0.0, SVG Export Plug-In . SVG Version: 6.00 Build 0)  -->
<!DOCTYPE svg PUBLIC "-//W3C//DTD SVG 1.1//EN" "http://www.w3.org/Graphics/SVG/1.1/DTD/svg11.dtd">
<svg version="1.1" id="Artwork" xmlns="http://www.w3.org/2000/svg" xmlns:xlink="http://www.w3.org/1999/xlink" x="0px" y="0px"
	 width="512px" height="512px" viewBox="0 0 512 512" enable-background="new 0 0 512 512" xml:space="preserve">
<g>
	<path d="M239.353,379.439c-14.292,0-25.918,11.627-25.918,25.918c0,14.291,11.627,25.918,25.918,25.918
		c14.291,0,25.918-11.627,25.918-25.918C265.271,391.066,253.644,379.439,239.353,379.439z M239.353,411.275
		c-3.264,0-5.918-2.655-5.918-5.918c0-3.264,2.655-5.918,5.918-5.918c3.263,0,5.918,2.655,5.918,5.918
		C245.271,408.621,242.616,411.275,239.353,411.275z"/>
	<path d="M361.563,379.439c-14.291,0-25.918,11.627-25.918,25.918c0,14.291,11.627,25.918,25.918,25.918
		c14.292,0,25.919-11.627,25.919-25.918C387.482,391.066,375.855,379.439,361.563,379.439z M361.563,411.275
		c-3.263,0-5.918-2.655-5.918-5.918c0-3.264,2.655-5.918,5.918-5.918c3.264,0,5.919,2.655,5.919,5.918
		C367.482,408.621,364.827,411.275,361.563,411.275z"/>
	<path d="M401.958,350.937h-203c-5.523,0-10,4.477-10,10s4.477,10,10,10h203c5.522,0,10-4.477,10-10S407.48,350.937,401.958,350.937
		z"/>
	<path d="M438.277,175.053c-4.165-5.067-16.489-7.759-16.489-7.759c-0.537-0.118-1.427-0.214-1.977-0.213l-248,0.077
		c-0.55,0-1.444,0.071-1.988,0.157l-1.933-1.095c-0.461-0.299-0.928-0.985-1.036-1.524l-12.114-60.255
		c-0.108-0.54-3.015-23.715-28.957-23.715H82.631h-3.333c-5.5,0-10,4.5-10,10s4.5,10,10,10h0.042h3.292h43.153
		c8.192,0,9.241,7.118,9.35,7.657l16.094,80.052c0.108,0.54,0.283,1.422,0.388,1.962c0,0,18.167,93.82,24.264,125.085
		c0.105,0.54,1.848,23.763,28.905,23.763h185.027c27.332,0,28.193-19.982,28.906-23.763c5.698-30.241,23.811-120.77,23.811-120.77
		c0.105-0.54,0.184-1.431,0.173-1.98C442.701,192.731,442.442,180.119,438.277,175.053z M182.516,237.616
		c-0.55,0-1.088-0.441-1.197-0.98l-9.558-47.541c-0.108-0.539-0.143-1.098-0.076-1.24c0,0,0,0,0.083-0.101
		c0.352-0.428,1.027-0.527,1.027-0.527c0.544-0.08,1.439-0.146,1.989-0.146h32.684c0.55,0,1.089,0.441,1.197,0.98l9.766,48.575
		c0.108,0.54-0.253,0.98-0.803,0.98H182.516z M234.039,319.245h-29.254c-7.391,0-9.178-7.092-9.284-7.632l-0.889-4.51
		c-0.106-0.54-0.275-1.424-0.374-1.965l-8.521-46.538c-0.099-0.541,0.27-0.984,0.82-0.984h35.112c0.55,0,1.089,0.441,1.197,0.98
		l11.996,59.668C234.95,318.804,234.589,319.245,234.039,319.245z M290.437,318.245c0,0.55-0.449,1-1,1h-32.998
		c-0.55,0-1.088-0.441-1.197-0.98l-11.996-59.668c-0.108-0.54,0.253-0.98,0.803-0.98h45.388c0.551,0,1,0.45,1,1V318.245z
		 M290.437,236.616c0,0.55-0.449,1-1,1h-49.408c-0.55,0-1.089-0.441-1.197-0.98l-9.766-48.575c-0.108-0.539,0.253-0.98,0.803-0.98
		h59.568c0.551,0,1,0.45,1,1V236.616z M345.643,318.264c-0.108,0.54-0.647,0.98-1.197,0.98h-33.009c-0.55,0-1-0.45-1-1v-59.629
		c0-0.55,0.45-1,1-1h45.398c0.551,0,0.912,0.441,0.804,0.98L345.643,318.264z M360.856,237.616h-49.42c-0.55,0-1-0.45-1-1V188.08
		c0-0.55,0.45-1,1-1h59.579c0.55,0,0.911,0.441,0.804,0.98l-9.766,48.575C361.945,237.175,361.406,237.616,360.856,237.616z
		 M399.095,311.613c-0.106,0.54-1.534,7.632-9.283,7.632h-22.966c-0.55,0-0.911-0.441-0.804-0.98l11.996-59.668
		c0.108-0.54,0.647-0.98,1.197-0.98h29.505c0.55,0,0.913,0.441,0.807,0.981C409.547,258.597,401.708,298.359,399.095,311.613z
		 M423.146,188.864c-0.026,0.549-0.136,1.44-0.242,1.979l-9.027,45.791c-0.106,0.54-0.644,0.981-1.193,0.981h-29.428
		c-0.55,0-0.911-0.441-0.803-0.98l9.766-48.575c0.108-0.539,0.647-0.98,1.197-0.98h26.396c0.55,0,1.444,0.066,1.989,0.146
		c0,0,0.675,0.1,1.027,0.527C423.179,188.182,423.146,188.864,423.146,188.864z"/>
</g>
</svg>
